<?xml version="1.0" standalone="no"?>
<!DOCTYPE svg PUBLIC "-//W3C//DTD SVG 20010904//EN"
 "http://www.w3.org/TR/2001/REC-SVG-20010904/DTD/svg10.dtd">
<svg version="1.0" xmlns="http://www.w3.org/2000/svg"
 width="200.000000pt" height="200.000000pt" viewBox="0 0 200.000000 200.000000"
 preserveAspectRatio="xMidYMid meet">
<metadata>
Created by potrace 1.11, written by Peter Selinger 2001-2013
</metadata>
<g transform="translate(0.000000,200.000000) scale(0.100000,-0.100000)"
fill="#000000" stroke="none">
<path d="M847 1873 c-4 -7 -10 -38 -13 -69 -7 -90 -13 -92 -71 -33 -28 28 -56
49 -61 45 -6 -3 -16 -31 -23 -61 -18 -83 -30 -86 -79 -21 -63 84 -78 74 -35
-24 13 -32 20 -59 15 -64 -5 -5 -34 -2 -70 8 -33 9 -64 14 -69 11 -6 -3 -4
-27 6 -57 30 -102 26 -105 -58 -62 -81 40 -92 28 -31 -35 50 -51 61 -69 45
-72 -5 -1 -31 -3 -60 -4 -87 -4 -89 -6 -54 -71 48 -85 41 -95 -46 -63 -13 5
-23 6 -23 4 0 -2 -11 0 -25 5 -46 17 -28 -15 30 -55 31 -21 54 -43 52 -49 -2
-6 -31 -18 -65 -26 -33 -8 -64 -18 -68 -23 -4 -4 16 -32 45 -61 56 -57 56 -65
-2 -72 -76 -10 -97 -15 -97 -24 0 -6 3 -10 8 -11 4 0 16 -2 27 -4 11 -2 38 -6
59 -10 22 -3 43 -8 49 -12 5 -3 -15 -29 -44 -59 -29 -29 -50 -56 -46 -60 3 -4
34 -14 69 -24 34 -9 64 -22 66 -28 2 -6 -22 -28 -52 -48 -72 -47 -75 -68 -8
-50 91 26 102 28 102 11 0 -8 -14 -40 -30 -69 -36 -63 -33 -68 49 -71 31 -1
59 -3 64 -4 16 -3 4 -22 -45 -72 -29 -29 -47 -54 -40 -57 6 -2 37 8 68 22 49
22 84 32 84 23 0 -1 -9 -33 -19 -70 -23 -80 -18 -86 50 -63 40 14 89 21 89 13
0 -2 -11 -31 -25 -65 -41 -101 -29 -111 34 -27 23 30 46 55 51 55 8 0 25 -50
36 -104 8 -44 24 -42 76 12 30 31 55 49 60 44 5 -5 10 -37 12 -71 2 -34 6 -65
9 -68 13 -12 26 11 37 61 17 85 31 88 75 16 20 -33 40 -60 45 -60 5 0 25 27
45 60 20 33 40 60 45 60 5 0 14 -19 21 -42 27 -99 31 -110 41 -100 9 9 15 50
17 120 1 34 26 26 72 -23 23 -25 47 -44 52 -42 6 2 18 31 27 65 10 35 21 66
25 70 7 7 26 -13 76 -79 39 -50 46 -28 15 47 -15 37 -24 69 -21 72 3 3 35 -2
72 -12 36 -9 69 -14 73 -9 5 4 0 35 -11 68 -11 35 -15 63 -9 69 5 5 35 -3 75
-19 36 -16 68 -26 71 -23 3 3 -17 30 -45 58 -49 50 -60 68 -43 71 4 1 31 3 61
5 86 5 87 6 51 70 -40 71 -36 85 21 73 23 -5 49 -13 58 -18 9 -5 24 -5 34 -2
15 6 8 15 -43 50 -33 24 -59 48 -57 54 2 7 32 19 66 28 34 9 65 19 68 23 4 4
-17 31 -46 60 -56 57 -56 64 2 72 18 3 45 7 60 9 63 8 50 22 -33 36 -35 5 -68
13 -73 16 -5 3 15 29 44 59 29 29 49 57 45 61 -4 5 -35 15 -68 23 -34 9 -63
21 -65 27 -3 7 21 29 51 49 75 50 75 67 -1 47 -88 -23 -93 -23 -93 -7 0 8 14
39 31 69 36 63 33 67 -55 70 -28 1 -54 3 -58 4 -18 3 -5 24 44 73 29 29 47 53
40 56 -6 2 -37 -8 -68 -22 -90 -41 -91 -40 -61 62 9 29 12 54 7 57 -5 3 -38
-2 -74 -12 -36 -9 -68 -14 -71 -11 -3 3 6 36 21 72 14 37 23 70 19 74 -4 4
-21 -11 -38 -32 -18 -22 -39 -49 -49 -60 -21 -27 -25 -22 -47 55 -9 34 -22 64
-27 66 -5 2 -31 -20 -58 -47 -27 -28 -53 -47 -57 -43 -4 4 -10 37 -14 73 -3
36 -10 69 -15 74 -8 8 -40 -80 -40 -110 0 -6 -6 -17 -14 -23 -11 -10 -21 -1
-51 49 -20 33 -40 60 -45 60 -4 0 -23 -24 -40 -52 -18 -29 -38 -56 -44 -60
-12 -8 -34 34 -36 67 -1 33 -25 81 -33 68z m-44 -549 c45 -23 66 -44 88 -86
48 -94 2 -211 -100 -254 -116 -49 -252 44 -251 173 1 131 149 225 263 167z
m574 -20 c48 -39 72 -87 72 -144 1 -65 -29 -123 -80 -157 -58 -38 -148 -40
-201 -4 -59 41 -83 86 -83 155 0 75 27 124 88 161 36 22 51 25 104 23 51 -3
69 -9 100 -34z"/>
<path d="M679 1200 c-23 -23 -29 -35 -24 -52 25 -80 130 -76 139 5 3 28 -10
49 -41 65 -32 17 -41 15 -74 -18z"/>
<path d="M1220 1201 c-21 -20 -27 -34 -23 -54 12 -61 88 -77 126 -25 17 23 18
30 7 57 -11 28 -30 40 -69 47 -8 2 -26 -10 -41 -25z"/>
</g>
</svg>
