<?xml version="1.0" encoding="utf-8"?>
<!-- Generator: Adobe Illustrator 21.0.0, SVG Export Plug-In . SVG Version: 6.00 Build 0)  -->
<svg version="1.1" xmlns="http://www.w3.org/2000/svg" xmlns:xlink="http://www.w3.org/1999/xlink" x="0px" y="0px"
	 viewBox="0 0 612 792" style="enable-background:new 0 0 612 792;" xml:space="preserve">
<style type="text/css">
	.st0{fill:#231F20;}
	.st1{display:none;}
	.st2{display:inline;}
	.st3{fill:url(#SVGID_1_);}
	.st4{fill:url(#SVGID_2_);}
	.st5{fill:url(#SVGID_3_);}
	.st6{fill:url(#SVGID_4_);}
	.st7{fill:url(#SVGID_5_);}
</style>
<g id="Black">
	<g>
		<path class="st0" d="M77.7,376.5c0-7.9-4.7-9-6.1-9.2c-2.2,0-2.7-1.8-2.7-5v-16.6c0-4.1,3.6-5.8,13.9-5.8
			c12.6,0,20.9,5.4,23.8,16.2v1.4c2.9-8.1,10.8-17.8,31.5-17.8c4.9,0,10.6,0.9,14.4,2.7c2.7,1.1,3.4,2.7,1.6,6.8l-9.9,21.8
			c-1.3,2.9-2,2.7-4.1,1.8c-2.5-0.9-6.3-2.3-12.4-2.3c-11.9,0-16.2,9.9-16.2,16.9v56.9c0,3.4-1.8,5.2-5,5.2H82.9
			c-3.4,0-5.2-1.8-5.2-5.2V376.5z"/>
		<path class="st0" d="M297.5,443.1l-50.8-138.6c-3.2-9.2-6.8-12.6-15.3-12.6h-14.2c-8.3,0-11.7,3.4-15.3,12.6l-52.4,138.6
			c-1.1,3.2,0,6.3,3.6,6.3h28.1c4.3,0,4.7-3.4,5.6-5.8l10.3-31.5h52.4l10.6,31.3c0.9,2.9,1.3,6.1,5.6,6.1h28.1
			C297.5,449.4,298.6,446,297.5,443.1z M206.2,385l17.3-51.3l17.3,51.3H206.2z"/>
		<path class="st0" d="M494.6,469.8c-7.4,19.8-21.8,35.1-46.6,35.1c-8.1,0-312-0.2-315.8-1.6c-3.4-1.3-3.8-4.5-3.4-7.2l4.7-14.8
			c0.8-2.9,2-5.2,4.3-5.2c2.2,0.2,303,0,307.8,0c11.5,0,16.9-8.3,20-17.1l3.8-9.9l-40.9-101.5c-1.3-3.6-1.1-6.8,3.6-6.8h24.3
			c4.1,0,6.7,3.6,7.9,6.3l22.3,61.2l19.8-61.4c0.9-2.5,4.1-6.1,8.1-6.1H538c4.7,0,4.9,3.2,3.4,6.8L494.6,469.8z"/>
		<path class="st0" d="M355.3,442.8c0,3.2-2,7.6-15.1,7.6c-18.2,0.2-27.9-9.7-27.9-30.6V291.4c0-3.6,1.4-5.4,5.2-5.4h23.6
			c3.4,0,5.2,2,5.2,5.4v122.4c0,5.2,1.4,7.4,3.8,8.3c2.2,1.1,5.2,1.1,5.2,5.6V442.8z"/>
		<path class="st0" d="M417.9,442.8c0,3.2-2,7.6-15.1,7.6c-18.2,0.2-27.9-9.7-27.9-30.6V291.4c0-3.6,1.4-5.4,5.2-5.4h23.6
			c3.4,0,5.2,2,5.2,5.4v122.4c0,5.2,1.3,7.4,3.8,8.3c2.2,1.1,5.2,1.1,5.2,5.6V442.8z"/>
	</g>
</g>
<g id="Color" class="st1">
	<g class="st2">
		<linearGradient id="SVGID_1_" gradientUnits="userSpaceOnUse" x1="112.0652" y1="315.3686" x2="112.0652" y2="506.5723">
			<stop  offset="0" style="stop-color:#A3FF32"/>
			<stop  offset="1" style="stop-color:#169100"/>
		</linearGradient>
		<path class="st3" d="M77.7,376.5c0-7.9-4.7-9-6.1-9.2c-2.2,0-2.7-1.8-2.7-5v-16.6c0-4.1,3.6-5.8,13.9-5.8
			c12.6,0,20.9,5.4,23.8,16.2v1.4c2.9-8.1,10.8-17.8,31.5-17.8c4.9,0,10.6,0.9,14.4,2.7c2.7,1.1,3.4,2.7,1.6,6.8l-9.9,21.8
			c-1.3,2.9-2,2.7-4.1,1.8c-2.5-0.9-6.3-2.3-12.4-2.3c-11.9,0-16.2,9.9-16.2,16.9v56.9c0,3.4-1.8,5.2-5,5.2H82.9
			c-3.4,0-5.2-1.8-5.2-5.2V376.5z"/>
		<linearGradient id="SVGID_2_" gradientUnits="userSpaceOnUse" x1="223.4975" y1="315.3686" x2="223.4975" y2="506.5723">
			<stop  offset="0" style="stop-color:#A3FF32"/>
			<stop  offset="1" style="stop-color:#169100"/>
		</linearGradient>
		<path class="st4" d="M297.5,443.1l-50.8-138.6c-3.2-9.2-6.8-12.6-15.3-12.6h-14.2c-8.3,0-11.7,3.4-15.3,12.6l-52.4,138.6
			c-1.1,3.2,0,6.3,3.6,6.3h28.1c4.3,0,4.7-3.4,5.6-5.8l10.3-31.5h52.4l10.6,31.3c0.9,2.9,1.3,6.1,5.6,6.1h28.1
			C297.5,449.4,298.6,446,297.5,443.1z M206.2,385l17.3-51.3l17.3,51.3H206.2z"/>
		<linearGradient id="SVGID_3_" gradientUnits="userSpaceOnUse" x1="335.5133" y1="315.3686" x2="335.5133" y2="506.5723">
			<stop  offset="0" style="stop-color:#A3FF32"/>
			<stop  offset="1" style="stop-color:#169100"/>
		</linearGradient>
		<path class="st5" d="M494.6,469.8c-7.4,19.8-21.8,35.1-46.6,35.1c-8.1,0-312-0.2-315.8-1.6c-3.4-1.3-3.8-4.5-3.4-7.2l4.7-14.8
			c0.8-2.9,2-5.2,4.3-5.2c2.2,0.2,303,0,307.8,0c11.5,0,16.9-8.3,20-17.1l3.8-9.9l-40.9-101.5c-1.3-3.6-1.1-6.8,3.6-6.8h24.3
			c4.1,0,6.7,3.6,7.9,6.3l22.3,61.2l19.8-61.4c0.9-2.5,4.1-6.1,8.1-6.1H538c4.7,0,4.9,3.2,3.4,6.8L494.6,469.8z"/>
		<linearGradient id="SVGID_4_" gradientUnits="userSpaceOnUse" x1="333.8604" y1="315.3686" x2="333.8604" y2="506.5723">
			<stop  offset="0" style="stop-color:#A3FF32"/>
			<stop  offset="1" style="stop-color:#169100"/>
		</linearGradient>
		<path class="st6" d="M355.3,442.8c0,3.2-2,7.6-15.1,7.6c-18.2,0.2-27.9-9.7-27.9-30.6V291.4c0-3.6,1.4-5.4,5.2-5.4h23.6
			c3.4,0,5.2,2,5.2,5.4v122.4c0,5.2,1.4,7.4,3.8,8.3c2.2,1.1,5.2,1.1,5.2,5.6V442.8z"/>
		<linearGradient id="SVGID_5_" gradientUnits="userSpaceOnUse" x1="396.4102" y1="315.3686" x2="396.4102" y2="506.5723">
			<stop  offset="0" style="stop-color:#A3FF32"/>
			<stop  offset="1" style="stop-color:#169100"/>
		</linearGradient>
		<path class="st7" d="M417.9,442.8c0,3.2-2,7.6-15.1,7.6c-18.2,0.2-27.9-9.7-27.9-30.6V291.4c0-3.6,1.4-5.4,5.2-5.4h23.6
			c3.4,0,5.2,2,5.2,5.4v122.4c0,5.2,1.3,7.4,3.8,8.3c2.2,1.1,5.2,1.1,5.2,5.6V442.8z"/>
	</g>
</g>
</svg>
